<?xml version="1.0" encoding="utf-8"?>
<!-- Generator: Adobe Illustrator 16.0.0, SVG Export Plug-In . SVG Version: 6.00 Build 0)  -->
<!DOCTYPE svg PUBLIC "-//W3C//DTD SVG 1.1//EN" "http://www.w3.org/Graphics/SVG/1.1/DTD/svg11.dtd">
<svg version="1.1" id="Layer_1" xmlns="http://www.w3.org/2000/svg" xmlns:xlink="http://www.w3.org/1999/xlink" x="0px" y="0px"
	 width="90px" height="50px" viewBox="0 0 90 50" enable-background="new 0 0 90 50" xml:space="preserve">
<g>
	<defs>
		<rect id="SVGID_1_" x="1.621" y="1" width="86.76" height="46.679"/>
	</defs>
	<clipPath id="SVGID_2_">
		<use xlink:href="#SVGID_1_"  overflow="visible"/>
	</clipPath>
	<path clip-path="url(#SVGID_2_)" fill="#010101" d="M65.041,46.135c-7.195,0-13.924-3.549-17.996-9.495
		c-0.141-0.207-0.279-0.417-0.413-0.628c0,0-0.296,0.545-0.457,0.825c-0.16,0.279-0.403,0.675-0.403,0.675
		c4.205,6.139,11.268,10.167,19.27,10.167c12.891,0,23.34-10.45,23.34-23.34S77.932,1,65.041,1C52.15,1,41.701,11.449,41.701,24.339
		c0,3.055,0.587,5.972,1.655,8.646c0,0,0.198-0.468,0.431-1.019c0.253-0.601,0.244-0.599,0.433-1.158
		c-0.647-2.085-0.975-4.255-0.975-6.47c0-12.018,9.778-21.795,21.795-21.795c12.018,0,21.797,9.777,21.797,21.795
		C86.838,36.357,77.059,46.135,65.041,46.135"/>
	<path clip-path="url(#SVGID_2_)" fill="#010101" d="M24.96,2.544c7.196,0,13.924,3.549,17.996,9.495
		c0.142,0.207,0.279,0.417,0.414,0.628c0,0,0.296-0.545,0.456-0.824c0.161-0.28,0.404-0.676,0.404-0.676
		C40.025,5.027,32.963,1,24.96,1C12.069,1,1.621,11.448,1.621,24.34c0,12.889,10.448,23.339,23.339,23.339
		c12.891,0,23.34-10.45,23.34-23.339c0-3.055-0.588-5.972-1.655-8.646c0,0-0.198,0.468-0.431,1.019
		c-0.254,0.601-0.244,0.599-0.434,1.158c0.646,2.085,0.976,4.255,0.976,6.47c0,12.018-9.778,21.795-21.796,21.795
		c-12.019,0-21.796-9.777-21.796-21.795C3.164,12.32,12.941,2.544,24.96,2.544"/>
	<path clip-path="url(#SVGID_2_)" fill="#010101" d="M11.226,15.479h1.805l4.645,12.644c0.301,0.815,0.602,1.892,0.643,2.106
		c0-0.13,0.302-1.248,0.69-2.106l5.246-12.814h0.387l5.334,12.771c0.387,0.901,0.73,2.149,0.73,2.149s0.257-1.248,0.601-2.149
		l4.645-12.601h1.719l-6.794,17.89h-0.429l-5.332-13.073c-0.303-0.731-0.603-1.763-0.644-1.978
		c-0.046,0.129-0.303,1.202-0.602,1.978l-5.421,13.073h-0.43L11.226,15.479z"/>
	<path clip-path="url(#SVGID_2_)" fill="#010101" d="M56.265,24.36c0-5.032,3.868-9.16,8.899-9.16c2.969,0,5.163,1.118,6.665,2.968
		l-1.202,0.988c-1.248-1.549-2.88-2.45-5.463-2.45c-4.299,0-7.14,3.31-7.14,7.654c0,4.301,2.841,7.611,7.14,7.611
		c2.753,0,4.562-1.032,5.806-2.625l1.206,0.991c-1.636,2.021-3.827,3.141-7.012,3.141C60.133,33.479,56.265,29.393,56.265,24.36"/>
</g>
</svg>
