<?xml version="1.0" encoding="utf-8"?>
<!-- Generator: Adobe Illustrator 16.0.0, SVG Export Plug-In . SVG Version: 6.00 Build 0)  -->
<!DOCTYPE svg PUBLIC "-//W3C//DTD SVG 1.1//EN" "http://www.w3.org/Graphics/SVG/1.1/DTD/svg11.dtd">
<svg version="1.1" id="Layer_1" xmlns="http://www.w3.org/2000/svg" xmlns:xlink="http://www.w3.org/1999/xlink" x="0px" y="0px"
	 width="90px" height="50px" viewBox="0 0 90 50" enable-background="new 0 0 90 50" xml:space="preserve">
<g>
	<g>
		<defs>
			<rect id="SVGID_1_" x="1.621" y="1" width="86.76" height="46.68"/>
		</defs>
		<clipPath id="SVGID_2_">
			<use xlink:href="#SVGID_1_"  overflow="visible"/>
		</clipPath>
		<path clip-path="url(#SVGID_2_)" fill="#FFFFFF" d="M65.041,46.135c-7.195,0-13.924-3.549-17.996-9.494
			c-0.141-0.207-0.279-0.418-0.413-0.629c0,0-0.296,0.545-0.457,0.825c-0.159,0.279-0.403,0.675-0.403,0.675
			C49.977,43.65,57.04,47.68,65.042,47.68c12.892,0,23.34-10.451,23.34-23.341S77.932,1,65.041,1s-23.34,10.449-23.34,23.339
			c0,3.056,0.587,5.972,1.655,8.646c0,0,0.198-0.467,0.431-1.019c0.253-0.601,0.244-0.599,0.433-1.157
			c-0.647-2.086-0.975-4.256-0.975-6.471c0-12.018,9.778-21.795,21.795-21.795c12.019,0,21.797,9.777,21.797,21.795
			C86.838,36.357,77.059,46.135,65.041,46.135"/>
	</g>
	<g>
		<defs>
			<rect id="SVGID_3_" x="1.621" y="1" width="86.76" height="46.68"/>
		</defs>
		<clipPath id="SVGID_4_">
			<use xlink:href="#SVGID_3_"  overflow="visible"/>
		</clipPath>
		<path clip-path="url(#SVGID_4_)" fill="#FFFFFF" d="M24.96,2.544c7.196,0,13.924,3.549,17.996,9.495
			c0.142,0.207,0.279,0.417,0.414,0.628c0,0,0.296-0.545,0.456-0.824c0.161-0.28,0.404-0.676,0.404-0.676
			C40.025,5.027,32.963,1,24.96,1C12.069,1,1.621,11.448,1.621,24.34c0,12.889,10.448,23.34,23.339,23.34S48.3,37.229,48.3,24.34
			c0-3.055-0.588-5.972-1.655-8.646c0,0-0.197,0.468-0.431,1.019c-0.254,0.601-0.243,0.599-0.435,1.158
			c0.646,2.085,0.977,4.255,0.977,6.47c0,12.019-9.778,21.795-21.796,21.795c-12.019,0-21.796-9.776-21.796-21.795
			C3.164,12.32,12.941,2.544,24.96,2.544"/>
	</g>
	<g>
		<defs>
			<rect id="SVGID_5_" x="1.621" y="1" width="86.76" height="46.68"/>
		</defs>
		<clipPath id="SVGID_6_">
			<use xlink:href="#SVGID_5_"  overflow="visible"/>
		</clipPath>
		<path clip-path="url(#SVGID_6_)" fill="#FFFFFF" d="M11.226,15.479h1.805l4.645,12.644c0.301,0.814,0.602,1.893,0.643,2.105
			c0-0.129,0.302-1.248,0.69-2.105l5.246-12.814h0.387l5.334,12.771c0.387,0.9,0.73,2.148,0.73,2.148s0.257-1.248,0.601-2.148
			l4.645-12.601h1.719l-6.794,17.89h-0.429l-5.332-13.073c-0.303-0.731-0.603-1.763-0.644-1.978
			c-0.046,0.129-0.303,1.202-0.602,1.978l-5.421,13.073h-0.43L11.226,15.479z"/>
	</g>
	<g>
		<defs>
			<rect id="SVGID_7_" x="1.621" y="1" width="86.76" height="46.68"/>
		</defs>
		<clipPath id="SVGID_8_">
			<use xlink:href="#SVGID_7_"  overflow="visible"/>
		</clipPath>
		<path clip-path="url(#SVGID_8_)" fill="#FFFFFF" d="M56.266,24.36c0-5.032,3.867-9.16,8.898-9.16c2.969,0,5.163,1.118,6.665,2.968
			l-1.202,0.988c-1.248-1.549-2.88-2.45-5.463-2.45c-4.299,0-7.141,3.31-7.141,7.654c0,4.301,2.842,7.611,7.141,7.611
			c2.753,0,4.562-1.031,5.807-2.625l1.205,0.991c-1.636,2.021-3.826,3.142-7.012,3.142C60.133,33.479,56.266,29.393,56.266,24.36"/>
	</g>
</g>
</svg>
