<?xml version="1.0" encoding="utf-8"?>
<!-- Generator: Adobe Illustrator 16.0.0, SVG Export Plug-In . SVG Version: 6.00 Build 0)  -->
<!DOCTYPE svg PUBLIC "-//W3C//DTD SVG 1.1//EN" "http://www.w3.org/Graphics/SVG/1.1/DTD/svg11.dtd">
<svg version="1.1" id="Layer_1" xmlns="http://www.w3.org/2000/svg" xmlns:xlink="http://www.w3.org/1999/xlink" x="0px" y="0px"
	 width="50px" height="50px" viewBox="0 0 50 50" enable-background="new 0 0 50 50" xml:space="preserve">
<circle fill="#EDC21B" cx="24.908" cy="24.995" r="22.925"/>
<g>
	<g>
		<defs>
			<rect id="SVGID_1_" x="7.346" y="15.546" width="35.125" height="18.898"/>
		</defs>
		<clipPath id="SVGID_2_">
			<use xlink:href="#SVGID_1_"  overflow="visible"/>
		</clipPath>
		<path clip-path="url(#SVGID_2_)" fill="#020202" d="M33.021,33.818c-2.913,0-5.637-1.436-7.286-3.844
			c-0.056-0.083-0.113-0.168-0.168-0.255c0,0-0.119,0.222-0.185,0.335c-0.063,0.113-0.162,0.273-0.162,0.273
			c1.702,2.484,4.562,4.116,7.801,4.116c5.219,0,9.449-4.231,9.449-9.449c0-5.219-4.23-9.449-9.449-9.449s-9.449,4.23-9.449,9.449
			c0,1.236,0.237,2.417,0.67,3.499c0,0,0.08-0.188,0.175-0.411c0.102-0.244,0.099-0.243,0.176-0.469
			c-0.263-0.845-0.396-1.724-0.396-2.62c0-4.865,3.958-8.823,8.824-8.823c4.864,0,8.824,3.958,8.824,8.823
			C41.847,29.86,37.886,33.818,33.021,33.818"/>
	</g>
	<g>
		<defs>
			<rect id="SVGID_3_" x="7.346" y="15.546" width="35.125" height="18.898"/>
		</defs>
		<clipPath id="SVGID_4_">
			<use xlink:href="#SVGID_3_"  overflow="visible"/>
		</clipPath>
		<path clip-path="url(#SVGID_4_)" fill="#020202" d="M16.795,16.171c2.913,0,5.637,1.438,7.285,3.844
			c0.058,0.084,0.113,0.169,0.168,0.255c0,0,0.119-0.221,0.185-0.334c0.065-0.112,0.163-0.273,0.163-0.273
			c-1.702-2.486-4.561-4.116-7.801-4.116c-5.219,0-9.449,4.23-9.449,9.449c0,5.218,4.229,9.449,9.449,9.449s9.449-4.231,9.449-9.449
			c0-1.237-0.238-2.417-0.67-3.5c0,0-0.081,0.189-0.175,0.412c-0.104,0.243-0.099,0.242-0.176,0.469
			c0.262,0.844,0.395,1.723,0.395,2.62c0,4.865-3.958,8.824-8.823,8.824s-8.824-3.959-8.824-8.824
			C7.971,20.129,11.929,16.171,16.795,16.171"/>
	</g>
	<g>
		<defs>
			<rect id="SVGID_5_" x="7.346" y="15.546" width="35.125" height="18.898"/>
		</defs>
		<clipPath id="SVGID_6_">
			<use xlink:href="#SVGID_5_"  overflow="visible"/>
		</clipPath>
		<path clip-path="url(#SVGID_6_)" fill="#020202" d="M11.235,21.408h0.73l1.881,5.119c0.122,0.328,0.243,0.765,0.26,0.852
			c0-0.052,0.123-0.505,0.279-0.852l2.123-5.188h0.157l2.16,5.17c0.157,0.365,0.295,0.87,0.295,0.87s0.104-0.505,0.243-0.87
			l1.881-5.101h0.695l-2.75,7.243h-0.174l-2.159-5.294c-0.123-0.295-0.244-0.714-0.26-0.8c-0.02,0.051-0.124,0.486-0.244,0.8
			l-2.195,5.294h-0.174L11.235,21.408z"/>
	</g>
	<g>
		<defs>
			<rect id="SVGID_7_" x="7.346" y="15.546" width="35.125" height="18.898"/>
		</defs>
		<clipPath id="SVGID_8_">
			<use xlink:href="#SVGID_7_"  overflow="visible"/>
		</clipPath>
		<path clip-path="url(#SVGID_8_)" fill="#020202" d="M29.469,25.003c0-2.036,1.566-3.708,3.602-3.708
			c1.202,0,2.091,0.453,2.698,1.201l-0.485,0.399c-0.506-0.626-1.167-0.991-2.213-0.991c-1.738,0-2.89,1.341-2.89,3.099
			c0,1.742,1.151,3.081,2.89,3.081c1.115,0,1.847-0.417,2.352-1.062l0.486,0.401c-0.661,0.817-1.547,1.271-2.838,1.271
			C31.035,28.695,29.469,27.041,29.469,25.003"/>
	</g>
</g>
</svg>
